<?xml version="1.0" encoding="iso-8859-1"?>
<!-- Generator: Adobe Illustrator 19.0.0, SVG Export Plug-In . SVG Version: 6.00 Build 0)  -->
<svg version="1.1" id="Capa_1" xmlns="http://www.w3.org/2000/svg" xmlns:xlink="http://www.w3.org/1999/xlink" x="0px" y="0px"
	 viewBox="0 0 512.001 512.001" style="enable-background:new 0 0 512.001 512.001;" xml:space="preserve">
<g>
	<g>
		<path d="M107.455,319.663c-3.911-3.911-10.244-3.911-14.145,0c-3.911,3.901-3.911,10.244,0,14.145
			c3.901,3.911,10.234,3.911,14.145,0C111.356,329.907,111.356,323.565,107.455,319.663z"/>
	</g>
</g>
<g>
	<g>
		<path d="M447.923,64.077C402.221,18.383,343.808-15.729,320.594,7.486c-0.104,0.105-0.207,0.212-0.307,0.321
			c-48.19,52.677-79.257,124.889-81.079,188.459l-0.168,5.955l-36.819,36.819c-3.923,0.392-43.147-1.049-91.64,16.24
			c-38.303,13.635-79.303,43.539-102.774,65.005c-0.109,0.1-0.217,0.203-0.322,0.308c-23.214,23.214,10.897,81.627,56.591,127.332
			c35.549,35.54,78.789,64.075,107.171,64.075c8.107,0,15.002-2.328,20.159-7.485c0.104-0.105,0.207-0.212,0.307-0.321
			c48.19-52.677,79.257-124.889,81.079-188.459l0.168-5.955l36.819-36.819l5.958-0.168c29.283-0.835,58.113-6.242,85.68-16.071
			c38.303-13.635,79.303-43.539,102.774-65.005c0.109-0.1,0.217-0.203,0.322-0.308C527.728,168.195,493.617,109.782,447.923,64.077z
			 M177.157,490.465c-2.473,2.231-12.401,3.579-33.216-6.829c-20.44-10.221-43.779-27.927-65.714-49.86
			c-21.934-21.938-39.641-45.277-49.862-65.716c-10.408-20.816-9.062-30.743-6.829-33.217
			c29.065-26.528,66.621-50.344,95.762-60.718c23.461-8.364,47.902-13.268,72.748-14.625c0.486,1.302,1.242,2.527,2.29,3.573
			l16.846,16.846l-74.008,24.671c-5.242,1.747-8.074,7.412-6.326,12.653c1.747,5.24,7.412,8.079,12.653,6.326l70.397-23.467
			L188.431,370.5c-1.748,5.241,1.084,10.906,6.326,12.653c5.207,1.741,10.897-1.056,12.653-6.326l24.671-74.008l16.846,16.846
			c1.038,1.038,2.251,1.792,3.541,2.279C248.859,379.153,220.415,443.075,177.157,490.465z M256.301,298.143
			c-0.104,0.096-0.203,0.197-0.303,0.297c-14.292-14.292-26.675-26.675-42.441-42.441l42.444-42.444l21.181,21.181
			c0.029,0.029,0.058,0.058,0.087,0.087l21.177,21.175L256.301,298.143z M490.466,177.156
			c-29.065,26.528-66.621,50.344-95.762,60.718c-23.461,8.364-47.902,13.268-72.748,14.625c-1.336-3.579-2.63-3.5-19.136-20.42
			l74.008-24.671c5.242-1.747,8.074-7.412,6.326-12.653c-1.747-5.241-7.41-8.078-12.653-6.326l-70.396,23.467l23.467-70.397
			c1.748-5.241-1.084-10.906-6.326-12.653c-5.241-1.751-10.906,1.085-12.653,6.326l-24.671,74.008
			c-16.992-16.584-16.843-17.789-20.388-19.124c3.609-57.21,32.054-121.132,75.311-168.522c2.471-2.233,12.4-3.58,33.217,6.829
			c20.44,10.221,43.779,27.927,65.714,49.86c21.934,21.938,39.641,45.277,49.862,65.716
			C494.046,164.754,492.7,174.682,490.466,177.156z"/>
	</g>
</g>
<g>
</g>
<g>
</g>
<g>
</g>
<g>
</g>
<g>
</g>
<g>
</g>
<g>
</g>
<g>
</g>
<g>
</g>
<g>
</g>
<g>
</g>
<g>
</g>
<g>
</g>
<g>
</g>
<g>
</g>
</svg>
