<?xml version="1.0" encoding="iso-8859-1"?>
<!-- Generator: Adobe Illustrator 19.0.0, SVG Export Plug-In . SVG Version: 6.00 Build 0)  -->
<svg version="1.1" id="Capa_1" xmlns="http://www.w3.org/2000/svg" xmlns:xlink="http://www.w3.org/1999/xlink" x="0px" y="0px"
	 viewBox="0 0 480 480" style="enable-background:new 0 0 480 480; fill:#284b62;" xml:space="preserve">
<g>
	<g>
		<g>
			<path d="M376,88h-1.752L359.76,30.056C358.868,26.497,355.669,24,352,24h-72c0-13.255-10.745-24-24-24h-32
				c-13.255,0-24,10.745-24,24h-72c-3.669,0-6.868,2.497-7.76,6.056L105.752,88H104c-4.418,0-8,3.582-8,8v32c0,4.418,3.582,8,8,8
				h8.592l25.864,336.616c0.323,4.176,3.812,7.396,8,7.384H333.6c4.188,0.012,7.677-3.208,8-7.384L367.408,136H376
				c4.418,0,8-3.582,8-8V96C384,91.582,380.418,88,376,88z M224,16h32c4.418,0,8,3.582,8,8h-48C216,19.582,219.582,16,224,16z
				 M134.248,40h211.504l12,48H122.248L134.248,40z M326.16,464H153.84l-4.912-64h182.144L326.16,464z M346.448,200H312v16h33.216
				L334.76,352H192v16h141.536l-1.232,16H147.696l-1.232-16H176v-16h-30.76l-10.456-136H296v-16H133.552l-1.224-16h215.344
				L346.448,200z M348.904,168H131.096l-2.456-32h222.72L348.904,168z M368,120H112v-16h256V120z"/>
			<path d="M217.376,257.376c-19.032,19.032-24,43.872-11.32,56.568c4.936,4.724,11.572,7.252,18.4,7.008
				c14.616-0.97,28.297-7.534,38.2-18.328c19.032-19.032,24-43.872,11.32-56.568S236.408,238.344,217.376,257.376z M215.2,293.512
				c1.667-9.525,6.404-18.243,13.488-24.824c6.539-7.035,15.207-11.728,24.672-13.36L215.2,293.512z M251.312,291.312
				c-6.569,7.093-15.279,11.841-24.8,13.52l38.288-38.344C263.133,276.013,258.396,284.731,251.312,291.312z"/>
		</g>
	</g>
</g>
<g>
</g>
<g>
</g>
<g>
</g>
<g>
</g>
<g>
</g>
<g>
</g>
<g>
</g>
<g>
</g>
<g>
</g>
<g>
</g>
<g>
</g>
<g>
</g>
<g>
</g>
<g>
</g>
<g>
</g>
</svg>
